PathFileType	4	(X/Y/Z)	/Users/itak/Documents/Research/Walk-IL/dataset/trc/00015_00004.trc
DataRate	CameraRate	NumFrames	NumMarkers	Units	OrigDataRate	OrigDataStartFrame	OrigNumFrames
100.000000	100.000000	4	53	mm	100.000000	73	588
Frame#	Time	RPSI			LPSI			L3			STRN			T10			C7			CLAV			RBAK			LBAK			LSHO			LUPA			LAEL			LAOL			LWTS			LWPS			LFRA			LIFD			LHPS			LHTS			RSHO			RUPA			RAEL			RAOL			RWTS			RWPS			RFRA			RIFD			RHTS			RHPS			RBHD			LFHD			RFHD			LBHD			LHIP			RHIP			RASI			LASI			LKNE			LTHI			LANK			LTIP			LTOE			LMT1			LMT5			LHEE			RKNE			RTHI			RANK			RTIP			RTOE			RMT1			RMT5			RHEE			
		X1	Y1	Z1	X2	Y2	Z2	X3	Y3	Z3	X4	Y4	Z4	X5	Y5	Z5	X6	Y6	Z6	X7	Y7	Z7	X8	Y8	Z8	X9	Y9	Z9	X10	Y10	Z10	X11	Y11	Z11	X12	Y12	Z12	X13	Y13	Z13	X14	Y14	Z14	X15	Y15	Z15	X16	Y16	Z16	X17	Y17	Z17	X18	Y18	Z18	X19	Y19	Z19	X20	Y20	Z20	X21	Y21	Z21	X22	Y22	Z22	X23	Y23	Z23	X24	Y24	Z24	X25	Y25	Z25	X26	Y26	Z26	X27	Y27	Z27	X28	Y28	Z28	X29	Y29	Z29	X30	Y30	Z30	X31	Y31	Z31	X32	Y32	Z32	X33	Y33	Z33	X34	Y34	Z34	X35	Y35	Z35	X36	Y36	Z36	X37	Y37	Z37	X38	Y38	Z38	X39	Y39	Z39	X40	Y40	Z40	X41	Y41	Z41	X42	Y42	Z42	X43	Y43	Z43	X44	Y44	Z44	X45	Y45	Z45	X46	Y46	Z46	X47	Y47	Z47	X48	Y48	Z48	X49	Y49	Z49	X50	Y50	Z50	X51	Y51	Z51	X52	Y52	Z52	X53	Y53	Z53	

74	0.73	1034.338745117188	1053.374267578125	-241.15625	1021.509704589844	1046.210571289062	-404.923828125	1022.872375488281	1111.644165039062	-332.4460754394531	1233.21240234375	1315.533325195312	-338.2483215332031	986.1798095703125	1250.362426757812	-337.0353698730469	1014.757934570312	1520.103637695312	-354.0224609375	1182.4677734375	1439.252075195312	-345.2458801269531	975.736083984375	1381.041137695312	-271.2572631835938	1002.653198242188	1475.366943359375	-450.9657592773438	1106.167724609375	1488.7783203125	-524.0001831054688	1085.303955078125	1361.064453125	-600.5315551757812	1098.9609375	1142.130859375	-618.8681030273438	1041.86328125	1128.9892578125	-530.9478759765625	1190.239379882812	891.8687133789062	-555.9547729492188	1115.195556640625	875.509521484375	-600.7213134765625	1115.097900390625	1026.72119140625	-621.999755859375	1220.30126953125	708.4066162109375	-536.0624389648438	1149.119384765625	786.4379272460938	-597.34375	1213.153076171875	798.34716796875	-567.7528686523438	1092.737060546875	1515.3935546875	-178.0940399169922	1084.505859375	1443.958618164062	-103.6602401733398	1064.583862304688	1174.064208984375	-79.33961486816406	1065.198120117188	1144.802490234375	-175.0516357421875	1205.107177734375	920.8057250976562	-105.0402526855469	1139.246459960938	904.5579833984375	-42.38681411743164	1081.104248046875	1099.676025390625	-63.13409805297852	1232.247680664062	733.2655639648438	-111.7572708129883	1240.9697265625	811.8418579101562	-86.99882507324219	1184.209594726562	806.3552856445312	-39.21335601806641	1042.2763671875	1699.047119140625	-281.0698852539062	1223.60986328125	1740.6171875	-380.7478332519531	1212.268920898438	1740.165283203125	-282.8338317871094	1050.288208007812	1702.572998046875	-424.7506713867188	1110.911987304688	949.2708129882812	-515.0965576171875	1155.741088867188	949.6143188476562	-147.3009490966797	1253.056396484375	985.6953735351562	-226.2566528320312	1232.421875	998.7522583007812	-461.2346801757812	1146.1865234375	504.8916320800781	-468.8671875	1125.732788085938	641.2780151367188	-503.096435546875	1042.383666992188	29.01070404052734	-464.3657531738281	1060.528564453125	275.9123840332031	-483.1438293457031	1266.919799804688	25.43791198730469	-406.4206848144531	1207.037963867188	35.40006637573242	-388.3013305664062	1166.333740234375	25.4771842956543	-487.5676879882812	975.5107421875	35.39017105102539	-408.3017272949219	1152.006958007812	512.3154907226562	-196.7615661621094	1177.980224609375	781.6885986328125	-151.9589538574219	1034.167602539062	33.76811981201172	-214.9216766357422	1123.195922851562	391.9089965820312	-195.8258361816406	1263.380004882812	29.1868782043457	-267.0495910644531	1198.490112304688	35.24662780761719	-293.8911743164062	1183.532592773438	28.37292861938477	-197.5762634277344	975.7017822265625	35.19525909423828	-256.8751525878906	
75	0.74	1034.256225585938	1053.352905273438	-241.1240386962891	1021.472290039062	1046.177368164062	-404.8464965820312	1022.66748046875	1111.623291015625	-332.3505554199219	1233.136840820312	1315.553955078125	-338.2290344238281	986.0994262695312	1250.355224609375	-336.9676513671875	1014.675354003906	1520.10107421875	-354.0005493164062	1182.311767578125	1439.26171875	-345.2366027832031	975.6168823242188	1381.065673828125	-271.1647338867188	1002.57080078125	1475.357421875	-450.9499816894531	1106.007690429688	1488.688720703125	-524.0094604492188	1085.1484375	1360.98388671875	-600.48876953125	1098.758178710938	1142.010498046875	-618.6556396484375	1041.642700195312	1128.936767578125	-530.7359619140625	1190.047607421875	891.8017578125	-555.52783203125	1115.042602539062	875.3779907226562	-600.283203125	1114.898315429688	1026.60595703125	-621.7244873046875	1220.04345703125	708.15625	-535.3804931640625	1148.95068359375	786.3206176757812	-596.8319702148438	1212.945922851562	798.2381591796875	-567.2423095703125	1092.681884765625	1515.451416015625	-178.1250915527344	1084.451049804688	1444.071533203125	-103.6641998291016	1064.6689453125	1174.1904296875	-79.10248565673828	1065.239990234375	1144.86669921875	-174.8400115966797	1205.242553710938	920.9392700195312	-104.7819290161133	1139.483276367188	904.7374877929688	-41.96162414550781	1081.221801757812	1099.8125	-62.85683822631836	1232.435791015625	733.4619750976562	-111.2858428955078	1241.167358398438	811.9829711914062	-86.60597991943359	1184.470825195312	806.5650634765625	-38.74613189697266	1042.019287109375	1698.982421875	-281.1992797851562	1223.424926757812	1740.63330078125	-380.7652587890625	1212.064208984375	1740.177612304688	-282.894775390625	1050.166137695312	1702.484375	-424.8276062011719	1110.887084960938	949.2840576171875	-515.0399780273438	1155.704223632812	949.6742553710938	-147.1874694824219	1252.99853515625	985.723876953125	-226.2269439697266	1232.356079101562	998.8033447265625	-461.1180114746094	1146.263061523438	504.9148254394531	-468.7937927246094	1125.741943359375	641.3064575195312	-503.0440979003906	1042.380126953125	29.01570320129395	-464.3624877929688	1060.569091796875	275.9164733886719	-483.1067199707031	1266.901123046875	25.44268035888672	-406.4190368652344	1207.022583007812	35.37471771240234	-388.2908935546875	1166.368896484375	25.47925758361816	-487.5621948242188	975.5189208984375	35.38834762573242	-408.2940063476562	1152.05419921875	512.3001098632812	-196.6979675292969	1177.932006835938	781.7018432617188	-151.852783203125	1034.159423828125	33.75360107421875	-214.9114837646484	1123.251098632812	391.9347839355469	-195.7610931396484	1263.377807617188	29.18537521362305	-267.0520935058594	1198.490112304688	35.23467636108398	-293.8895263671875	1183.533447265625	28.37310600280762	-197.5759429931641	975.69970703125	35.18825531005859	-256.8712463378906	
76	0.75	1034.173828125	1053.333251953125	-241.0841064453125	1021.429443359375	1046.149658203125	-404.7562561035156	1022.427856445312	1111.605102539062	-332.2372436523438	1233.05419921875	1315.574584960938	-338.1955871582031	986.019775390625	1250.347900390625	-336.8892211914062	1014.575378417969	1520.10546875	-353.9691467285156	1182.131958007812	1439.259765625	-345.1997375488281	975.435302734375	1381.089111328125	-271.0547485351562	1002.47802734375	1475.352294921875	-450.92236328125	1105.855590820312	1488.605346679688	-523.999267578125	1084.992919921875	1360.906494140625	-600.4298095703125	1098.541137695312	1141.905883789062	-618.437744140625	1041.412109375	1128.892333984375	-530.514404296875	1189.856689453125	891.7579345703125	-555.088623046875	1114.90283203125	875.2572021484375	-599.84130859375	1114.700073242188	1026.481201171875	-621.4410400390625	1219.795166015625	707.9127807617188	-534.697509765625	1148.811767578125	786.20166015625	-596.3214721679688	1212.759399414062	798.1554565429688	-566.7349243164062	1092.632568359375	1515.511962890625	-178.1441345214844	1084.390258789062	1444.182006835938	-103.6576156616211	1064.751220703125	1174.31103515625	-78.87138366699219	1065.267456054688	1144.932983398438	-174.6290130615234	1205.357177734375	921.05908203125	-104.5399856567383	1139.707275390625	904.905517578125	-41.52949523925781	1081.344970703125	1099.943359375	-62.57456588745117	1232.586547851562	733.6514892578125	-110.8296279907227	1241.322143554688	812.1383666992188	-86.23973846435547	1184.66064453125	806.7453002929688	-38.29397201538086	1041.777587890625	1698.922729492188	-281.3066101074219	1223.258422851562	1740.647338867188	-380.7762756347656	1211.8876953125	1740.19091796875	-282.95751953125	1050.046020507812	1702.410522460938	-424.8827209472656	1110.853515625	949.297119140625	-514.9754028320312	1155.6787109375	949.7463989257812	-147.0710601806641	1252.93408203125	985.7453002929688	-226.1900177001953	1232.289184570312	998.8626098632812	-460.9866943359375	1146.351928710938	504.9397888183594	-468.7183837890625	1125.752807617188	641.33935546875	-502.9858093261719	1042.376831054688	29.02346611022949	-464.357421875	1060.612426757812	275.9211120605469	-483.0683898925781	1266.880859375	25.44388771057129	-406.4150085449219	1207.006103515625	35.34714508056641	-388.2789611816406	1166.397705078125	25.48288917541504	-487.5554504394531	975.5269165039062	35.38695907592773	-408.2843017578125	1152.089599609375	512.2777099609375	-196.6288757324219	1177.89013671875	781.7279052734375	-151.7223815917969	1034.150390625	33.73714828491211	-214.900390625	1123.305419921875	391.9580993652344	-195.6961212158203	1263.376953125	29.18590927124023	-267.0559997558594	1198.489379882812	35.22771835327148	-293.8888854980469	1183.534423828125	28.37213706970215	-197.5742340087891	975.6995849609375	35.17993545532227	-256.8648681640625	
77	0.76	1034.09375	1053.315063476562	-241.0365142822266	1021.380432128906	1046.127563476562	-404.6539001464844	1022.160522460938	1111.5908203125	-332.1079711914062	1232.9619140625	1315.595336914062	-338.1448669433594	985.9412841796875	1250.340454101562	-336.7998657226562	1014.454956054688	1520.117065429688	-353.9278259277344	1181.93212890625	1439.246704101562	-345.1358642578125	975.1901245117188	1381.113525390625	-270.9288024902344	1002.371765136719	1475.349731445312	-450.8827819824219	1105.710693359375	1488.528686523438	-523.970947265625	1084.8369140625	1360.83056640625	-600.3543090820312	1098.311645507812	1141.815307617188	-618.2113037109375	1041.179931640625	1128.85498046875	-530.283203125	1189.668334960938	891.7335815429688	-554.6487426757812	1114.770141601562	875.144775390625	-599.3970336914062	1114.503540039062	1026.345703125	-621.146240234375	1219.573486328125	707.6998901367188	-534.0369262695312	1148.695922851562	786.0873413085938	-595.8154296875	1212.588745117188	798.104248046875	-566.2342529296875	1092.588745117188	1515.575073242188	-178.1492919921875	1084.322631835938	1444.2919921875	-103.6404495239258	1064.82763671875	1174.426635742188	-78.64913177490234	1065.281982421875	1145.000122070312	-174.4166259765625	1205.461059570312	921.1730346679688	-104.2972259521484	1139.907958984375	905.0615844726562	-41.09972381591797	1081.472900390625	1100.07080078125	-62.28939056396484	1232.705932617188	733.8294677734375	-110.3899917602539	1241.439331054688	812.3170776367188	-85.89584350585938	1184.76904296875	806.8953247070312	-37.86474609375	1041.555419921875	1698.871337890625	-281.3912353515625	1223.10986328125	1740.65625	-380.7786865234375	1211.740600585938	1740.208251953125	-283.0234985351562	1049.927490234375	1702.353149414062	-424.9199523925781	1110.810180664062	949.3106079101562	-514.9031982421875	1155.650512695312	949.8299560546875	-146.9531860351562	1252.860595703125	985.7600708007812	-226.1433563232422	1232.223266601562	998.9325561523438	-460.8444213867188	1146.452758789062	504.957763671875	-468.6372985839844	1125.764526367188	641.376220703125	-502.9217529296875	1042.373779296875	29.03351211547852	-464.3509216308594	1060.65869140625	275.9246520996094	-483.0294189453125	1266.860595703125	25.44050979614258	-406.4088134765625	1206.988403320312	35.31795501708984	-388.2654724121094	1166.417602539062	25.48841857910156	-487.5474548339844	975.5344848632812	35.38653945922852	-408.2720336914062	1152.112182617188	512.2479858398438	-196.5529327392578	1177.8564453125	781.765625	-151.5653228759766	1034.140991210938	33.71958160400391	-214.8885498046875	1123.358276367188	391.9776000976562	-195.6311950683594	1263.377319335938	29.18843078613281	-267.0613403320312	1198.487548828125	35.22771453857422	-293.8890991210938	1183.53515625	28.37027740478516	-197.5710906982422	975.7026977539062	35.16960525512695	-256.8554077148438	
